<svg version="1.1" xmlns="http://www.w3.org/2000/svg" viewBox="0 0 107.59375 149.76171875" width="215.1875" height="299.5234375">
  <!-- svg-source:excalidraw -->
  
  <defs>
    <style class="style-fonts">
      @font-face {
        font-family: "Virgil";
        src: url("https://file%2B.vscode-resource.vscode-cdn.net/Users/marrywly/.vscode/extensions/pomdtr.excalidraw-editor-3.7.4/public//dist/excalidraw-assets/Virgil.woff2");
      }
      @font-face {
        font-family: "Cascadia";
        src: url("https://file%2B.vscode-resource.vscode-cdn.net/Users/marrywly/.vscode/extensions/pomdtr.excalidraw-editor-3.7.4/public//dist/excalidraw-assets/Cascadia.woff2");
      }
      @font-face {
        font-family: "Assistant";
        src: url("https://file%2B.vscode-resource.vscode-cdn.net/Users/marrywly/.vscode/extensions/pomdtr.excalidraw-editor-3.7.4/public//dist/excalidraw-assets/Assistant-Regular.woff2");
      }
    </style>
    
  </defs>
  <rect x="0" y="0" width="107.59375" height="149.76171875" fill="#ffffff"></rect><g stroke-linecap="round" transform="translate(10 10) rotate(0 43.796875 64.880859375)"><path d="M21.9 0 C34.22 -0.22, 47.88 0.54, 65.7 0 M21.9 0 C33.94 -0.85, 45.85 -0.85, 65.7 0 M65.7 0 C80.11 -0.87, 86.29 7.66, 87.59 21.9 M65.7 0 C79 0.57, 89.19 8.67, 87.59 21.9 M87.59 21.9 C86.77 55.96, 87.61 89.69, 87.59 107.86 M87.59 21.9 C87.15 43.78, 87.29 66.79, 87.59 107.86 M87.59 107.86 C87.49 121.48, 80.23 128.52, 65.7 129.76 M87.59 107.86 C87.43 121.1, 81.17 131.15, 65.7 129.76 M65.7 129.76 C52.7 128.54, 35.24 128.09, 21.9 129.76 M65.7 129.76 C55.22 129.5, 42.91 129.31, 21.9 129.76 M21.9 129.76 C9.11 130.7, 1.29 121.3, 0 107.86 M21.9 129.76 C8.16 129.46, 0.83 123.24, 0 107.86 M0 107.86 C-2.06 78.44, -0.74 51.31, 0 21.9 M0 107.86 C0.36 75.73, 0.26 43.9, 0 21.9 M0 21.9 C-1 8.47, 5.83 -0.54, 21.9 0 M0 21.9 C0.9 9.16, 8.58 -1.95, 21.9 0" stroke="#1e1e1e" stroke-width="2" fill="none"></path></g></svg>